<svg width="980" height="660" viewBox="0 0 980 660" fill="none" xmlns="http://www.w3.org/2000/svg">
  <defs>
    <linearGradient id="panel" x1="0" y1="0" x2="980" y2="660" gradientUnits="userSpaceOnUse">
      <stop stop-color="#ffffff"/>
      <stop offset="1" stop-color="#f4f5f7"/>
    </linearGradient>
    <linearGradient id="gold" x1="0" y1="0" x2="1" y2="1">
      <stop stop-color="#093389"/>
      <stop offset="1" stop-color="#e30011"/>
    </linearGradient>
    <filter id="shadow" x="-40" y="-40" width="1060" height="740" color-interpolation-filters="sRGB">
      <feDropShadow dx="0" dy="24" stdDeviation="28" flood-color="#093389" flood-opacity="0.14"/>
    </filter>
  </defs>
  <rect x="26" y="24" width="928" height="612" rx="24" fill="url(#panel)" stroke="#d7d7d7" filter="url(#shadow)"/>
  <rect x="54" y="54" width="872" height="56" rx="14" fill="#ffffff" stroke="#d7d7d7"/>
  <circle cx="86" cy="82" r="8" fill="#e30011"/>
  <circle cx="112" cy="82" r="8" fill="#093389"/>
  <circle cx="138" cy="82" r="8" fill="#d7d7d7"/>
  <rect x="178" y="70" width="190" height="24" rx="8" fill="#f4f5f7"/>
  <text x="196" y="87" fill="#000000" font-family="Noto Sans KR, Geist Mono, Consolas, monospace" font-size="13" font-weight="600">ElecBidSpec AI</text>
  <rect x="744" y="69" width="154" height="26" rx="8" fill="url(#gold)"/>
  <text x="784" y="87" fill="#ffffff" font-family="Noto Sans KR, Geist, Arial, sans-serif" font-size="13" font-weight="700">실시간 갱신</text>

  <rect x="54" y="134" width="250" height="448" rx="18" fill="#ffffff" stroke="#d7d7d7"/>
  <text x="78" y="169" fill="#093389" font-family="Noto Sans KR, Geist Mono, Consolas, monospace" font-size="12" font-weight="700">소스 상태</text>
  <g font-family="Noto Sans KR, Geist, Arial, sans-serif" font-size="14" font-weight="600">
    <rect x="78" y="192" width="202" height="44" rx="12" fill="#f4f5f7" stroke="#093389"/>
    <text x="98" y="219" fill="#303030">정상 소스 12개</text>
    <rect x="78" y="250" width="202" height="44" rx="12" fill="#fff5f5" stroke="#e30011"/>
    <text x="98" y="277" fill="#303030">포털 제한 7개</text>
    <rect x="78" y="308" width="202" height="44" rx="12" fill="#f4f5f7" stroke="#d7d7d7"/>
    <text x="98" y="335" fill="#303030">매칭 없음 13개</text>
    <rect x="78" y="366" width="202" height="44" rx="12" fill="#f4f5f7" stroke="#d7d7d7"/>
    <text x="98" y="393" fill="#303030">SAM.gov 준비</text>
  </g>
  <path d="M78 456H280" stroke="#d7d7d7"/>
  <text x="78" y="490" fill="#666666" font-family="Noto Sans KR, Geist, Arial, sans-serif" font-size="13">추적 중인 공공시장</text>
  <text x="78" y="530" fill="#093389" font-family="Noto Serif KR, Instrument Serif, Georgia, serif" font-size="52">33</text>
  <text x="150" y="528" fill="#e30011" font-family="Noto Sans KR, Geist Mono, Consolas, monospace" font-size="13" font-weight="700">소스</text>

  <rect x="330" y="134" width="596" height="206" rx="18" fill="#ffffff" stroke="#d7d7d7"/>
  <text x="356" y="169" fill="#093389" font-family="Noto Sans KR, Geist Mono, Consolas, monospace" font-size="12" font-weight="700">우선 검토 공고</text>
  <g font-family="Noto Sans KR, Geist, Arial, sans-serif">
    <rect x="356" y="192" width="544" height="44" rx="12" fill="#f4f5f7"/>
    <text x="376" y="219" fill="#303030" font-size="15" font-weight="700">JEA 변압기·배전 패키지</text>
    <text x="726" y="219" fill="#093389" font-size="13" font-weight="700">적합도 71</text>
    <rect x="356" y="248" width="544" height="44" rx="12" fill="#f4f5f7"/>
    <text x="376" y="275" fill="#303030" font-size="15" font-weight="700">DFW 공항 조명 전력 공사</text>
    <text x="726" y="275" fill="#e30011" font-size="13" font-weight="700">공개</text>
    <rect x="356" y="304" width="544" height="2" fill="#d7d7d7"/>
  </g>

  <rect x="330" y="366" width="286" height="216" rx="18" fill="#ffffff" stroke="#d7d7d7"/>
  <text x="356" y="401" fill="#093389" font-family="Noto Sans KR, Geist Mono, Consolas, monospace" font-size="12" font-weight="700">적합도 점수</text>
  <circle cx="474" cy="484" r="62" stroke="#e1e4e8" stroke-width="14"/>
  <path d="M474 422a62 62 0 1 1-58 84" stroke="#093389" stroke-width="14" stroke-linecap="round"/>
  <text x="441" y="499" fill="#000000" font-family="Noto Serif KR, Instrument Serif, Georgia, serif" font-size="56">86</text>
  <text x="420" y="542" fill="#666666" font-family="Noto Sans KR, Geist, Arial, sans-serif" font-size="14">입찰 준비도</text>

  <rect x="640" y="366" width="286" height="216" rx="18" fill="#ffffff" stroke="#d7d7d7"/>
  <text x="666" y="401" fill="#093389" font-family="Noto Sans KR, Geist Mono, Consolas, monospace" font-size="12" font-weight="700">제안 산출물</text>
  <g font-family="Noto Sans KR, Geist, Arial, sans-serif" font-size="14" font-weight="600">
    <rect x="666" y="424" width="234" height="30" rx="8" fill="#f4f5f7"/>
    <text x="682" y="444" fill="#303030">경영진 요약</text>
    <rect x="666" y="466" width="234" height="30" rx="8" fill="#f4f5f7"/>
    <text x="682" y="486" fill="#303030">컴플라이언스 매트릭스</text>
    <rect x="666" y="508" width="234" height="30" rx="8" fill="#f4f5f7"/>
    <text x="682" y="528" fill="#303030">파트너 접촉 이메일</text>
  </g>
</svg>
